<svg xmlns="http://www.w3.org/2000/svg" viewBox="0 0 96 96">
  <defs>
    <linearGradient id="bg" x1="0" y1="0" x2="1" y2="1">
      <stop offset="0" stop-color="#0f172a" />
      <stop offset="1" stop-color="#1e3a8a" />
    </linearGradient>
  </defs>
  <rect width="96" height="96" rx="18" fill="url(#bg)" />
  <path d="M24 64c6.667-8 13.333-12 20-12s13.333 4 20 12h-40Z" fill="#22d3ee" opacity="0.4" />
  <path d="M30 56a6 6 0 1 1 12 0 6 6 0 0 1-12 0Zm24-12a6 6 0 1 1 12 0 6 6 0 0 1-12 0Z" fill="#38bdf8" opacity="0.35" />
  <path d="M26 68h44a4 4 0 0 1 0 8H26a4 4 0 1 1 0-8Z" fill="#475569" opacity="0.6" />
  <path d="M32 60.5a4 4 0 0 1-2.828-6.828l28-28a4 4 0 1 1 5.656 5.656l-28 28A4 4 0 0 1 32 60.5Z" fill="#ecfeff" />
  <circle cx="28" cy="56" r="6" fill="#22d3ee" />
  <circle cx="56" cy="28" r="6" fill="#34d399" />
  <circle cx="68" cy="40" r="6" fill="#facc15" />
</svg>
