<svg xmlns="http://www.w3.org/2000/svg" viewBox="0 0 96 96">
  <defs>
    <linearGradient id="bg" x1="0" y1="0" x2="1" y2="1">
      <stop offset="0" stop-color="#0f172a" />
      <stop offset="1" stop-color="#1e3a8a" />
    </linearGradient>
  </defs>
  <rect width="96" height="96" rx="18" fill="url(#bg)" />
  <path d="M48 20c15.464 0 28 12.536 28 28S63.464 76 48 76 20 63.464 20 48 32.536 20 48 20Z" fill="#38bdf8" opacity="0.25" />
  <path d="M48 28c11.046 0 20 8.954 20 20s-8.954 20-20 20-20-8.954-20-20 8.954-20 20-20Z" fill="#1e40af" opacity="0.35" />
  <path d="M48 38a4 4 0 0 0-4 4v6h-6a4 4 0 1 0 0 8h6v6a4 4 0 1 0 8 0v-6h6a4 4 0 0 0 0-8h-6v-6a4 4 0 0 0-4-4Z" fill="#ecfeff" />
</svg>
