<svg viewBox="0 0 100 100" xmlns="http://www.w3.org/2000/svg" fill="#2dd4bf">
  <!-- Soccer Ball -->
  <circle cx="50" cy="50" r="45" fill="#2dd4bf" stroke="none" />
  
  <!-- Pentagon in center -->
  <path d="M50 25 L62 35 L58 50 L42 50 L38 35 Z" fill="white" />
  
  <!-- Hexagons around pentagon -->
  <path d="M50 25 L38 35 L32 22 L44 12 L56 12 L62 22 Z" fill="white" />
  <path d="M62 35 L74 32 L80 45 L74 58 L62 55 L58 50 Z" fill="white" />
  <path d="M58 50 L62 65 L56 78 L44 78 L38 65 L42 50 Z" fill="white" />
  <path d="M38 35 L26 32 L20 45 L26 58 L38 55 L42 50 Z" fill="white" />
  <path d="M32 22 L20 25 L14 12 L26 2 L38 5 L38 18 Z" fill="white" />
  <path d="M68 22 L80 25 L86 12 L74 2 L62 5 L62 18 Z" fill="white" />
</svg>