<svg xmlns="http://www.w3.org/2000/svg" viewBox="0 0 390 844">
  <defs>
    <linearGradient id="bg" x1="0" y1="0" x2="1" y2="1">
      <stop offset="0" stop-color="#0f172a" />
      <stop offset="1" stop-color="#1e3a8a" />
    </linearGradient>
    <linearGradient id="pitch" x1="0" y1="0" x2="0" y2="1">
      <stop offset="0" stop-color="#0f766e" />
      <stop offset="1" stop-color="#14532d" />
    </linearGradient>
  </defs>
  <rect width="390" height="844" rx="48" fill="url(#bg)" />
  <rect x="36" y="120" width="318" height="604" rx="32" fill="#020817" opacity="0.45" />
  <rect x="48" y="132" width="294" height="580" rx="28" fill="#0f172a" stroke="#38bdf8" stroke-width="4" />
  <rect x="68" y="232" width="254" height="360" rx="24" fill="url(#pitch)" stroke="#0ea5e9" stroke-width="4" />
  <g stroke="#ecfeff" stroke-width="4" fill="none" opacity="0.75">
    <rect x="68" y="232" width="254" height="360" rx="20" />
    <line x1="195" y1="232" x2="195" y2="592" />
    <circle cx="195" cy="412" r="64" />
    <circle cx="195" cy="412" r="6" fill="#ecfeff" />
    <rect x="68" y="308" width="56" height="168" rx="10" />
    <rect x="266" y="308" width="56" height="168" rx="10" />
    <circle cx="104" cy="412" r="10" fill="#ecfeff" />
    <circle cx="286" cy="412" r="10" fill="#ecfeff" />
  </g>
  <text x="68" y="720" fill="#38bdf8" font-size="36" font-family="'Segoe UI',sans-serif" font-weight="700">Astral Turf</text>
  <text x="68" y="764" fill="#cbd5f5" font-size="20" font-family="'Segoe UI',sans-serif">Mobile tactics snapshot</text>
</svg>
